# Blender 3.3.0
# www.blender.org
mtllib Book_01.mtl
o BookShelf04.001
v -0.801206 -0.002410 0.648291
v 0.913555 0.046597 0.474831
v -0.916386 0.108545 -0.458990
v 0.798375 0.157552 -0.632450
v -0.798375 -0.157552 0.632450
v 0.916386 -0.108545 0.458990
v -0.913555 -0.046596 -0.474831
v 0.801206 0.002410 -0.648291
vn -0.0182 0.9947 0.1016
vn -0.1030 0.0992 -0.9897
vn 0.0182 -0.9947 -0.1016
vn 0.1030 -0.0992 0.9897
vn -0.9945 -0.0284 0.1006
vn 0.9945 0.0284 -0.1006
vt 0.931260 0.245125
vt 0.938775 0.209317
vt 0.729677 0.245515
vt 0.932418 0.245125
vt 0.938775 0.477671
vt 0.762812 0.732586
vt 0.931260 0.638100
vt 0.768431 0.622148
vt 0.729677 0.638490
vt 0.932418 0.638100
vt 0.768431 0.353794
vt 0.762812 0.339611
vt 0.935313 0.245125
vt 0.939016 0.162196
vt 0.729573 0.245515
vt 0.934155 0.245125
vt 0.939016 0.430551
vt 0.762708 0.732586
vt 0.768673 0.669268
vt 0.935313 0.638100
vt 0.729573 0.638490
vt 0.768673 0.400914
vt 0.934155 0.638100
vt 0.762708 0.339611
s 1
usemtl BookshelfMat.004
f 1/1/1 2/4/1 4/10/1 3/7/1
f 3/8/2 4/11/2 8/22/2 7/19/2
f 7/20/3 8/23/3 6/16/3 5/13/3
f 5/14/4 6/17/4 2/5/4 1/2/4
f 3/9/5 7/21/5 5/15/5 1/3/5
f 8/24/6 4/12/6 2/6/6 6/18/6
