# Blender 3.3.0
# www.blender.org
mtllib ReceptionDesk_01.mtl
o WallBookshelf
v 2.679741 1.977767 0.781109
v 2.679741 2.198770 0.691075
v 2.679741 1.977768 -0.818891
v 2.679741 2.195806 -0.818891
v 2.629157 1.977768 -0.818891
v 2.629157 2.195806 -0.818891
v 2.629157 1.977767 0.781109
v 2.629157 2.198770 0.691075
v 2.679741 1.977768 -0.725807
v 2.679741 2.195806 -0.701976
v 2.629157 2.195806 -0.701976
v 2.629157 1.977768 -0.725807
v 2.629157 3.313231 -0.818891
v 2.679741 3.313231 -0.818891
v 2.679741 3.239970 -0.701976
v 2.629157 3.239970 -0.701976
v -2.679738 1.977767 0.781109
v -2.679738 2.195806 0.691075
v -2.679738 1.977768 -0.818891
v -2.679738 2.195806 -0.818891
v -2.629153 1.977768 -0.818891
v -2.629153 2.195806 -0.818891
v -2.629153 1.977767 0.781109
v -2.629153 2.195806 0.691075
v -2.679738 1.977768 -0.725807
v -2.679738 2.192842 -0.701976
v -2.629153 2.192842 -0.701976
v -2.629153 1.977768 -0.725807
v -2.629153 3.313231 -0.818891
v -2.679738 3.313231 -0.818891
v -2.679738 3.239970 -0.701976
v -2.629153 3.239970 -0.701976
v 2.679741 2.195806 -0.725807
v 2.679741 2.198958 0.781109
v 2.629157 2.195806 -0.725807
v 2.629157 2.198958 0.781109
v 2.679741 3.280892 -0.725807
v 2.629157 3.280892 -0.725807
v -2.679738 2.195806 -0.725807
v -2.679738 2.198958 0.781109
v -2.629153 2.195806 -0.725807
v -2.629153 2.198958 0.781109
v -2.679738 3.280892 -0.725807
v -2.629153 3.280892 -0.725807
v -2.612621 2.193700 0.567403
v -2.612621 3.917909 0.567403
v -2.612621 2.193700 -0.551368
v -2.612621 3.917909 -0.551368
v -2.329726 2.193700 0.567403
v -2.329726 3.917909 0.567403
v -2.329726 2.193700 -0.551368
v -2.329726 3.917909 -0.551368
v -1.548509 3.840918 0.567403
v -1.548509 2.193565 0.567403
v -1.783610 2.193700 0.567403
v -1.783610 3.809933 0.567403
v -1.783610 2.193700 -0.551368
v -2.030514 2.193700 0.567403
v -2.030514 3.809933 0.567403
v -2.030514 2.193700 -0.551368
v -2.030514 3.809934 -0.551368
v -1.783610 3.809934 -0.551368
v -2.042053 3.722525 -0.551368
v -1.268904 2.193565 -0.551368
v -1.541211 2.193565 0.567403
v -1.541211 3.676384 0.567403
v -1.541211 2.193565 -0.551368
v -1.541211 3.676384 -0.551368
v -1.268904 3.676384 -0.551368
v -1.268904 2.193565 0.567403
v -1.268904 3.676384 0.567403
v -1.548509 3.840918 -0.551368
v -1.775251 3.840918 -0.551368
v -1.775251 2.193565 -0.551368
v -1.775251 3.840918 0.567403
v -1.775251 2.193565 0.567403
v -2.324948 3.722525 -0.551368
v -2.324948 2.193700 -0.551368
v -2.324948 3.722525 0.567403
v -2.324948 2.193700 0.567403
v -1.548509 2.193565 -0.551368
v -2.042053 2.193700 -0.551368
v -2.042053 3.722525 0.567403
v -2.042053 2.193700 0.567403
v -0.971714 2.193565 -0.551368
v -1.255924 2.193565 0.567403
v -1.255924 3.851201 0.567403
v -1.255924 2.193565 -0.551368
v -1.255924 3.851202 -0.551368
v -0.971714 3.851202 -0.551368
v -0.971714 2.193565 0.567403
v -0.971714 3.851201 0.567403
v -0.691335 2.193565 -0.551368
v -0.963643 2.193565 0.567403
v -0.963643 3.764821 0.567403
v -0.963643 2.193565 -0.551368
v -0.963643 3.764821 -0.551368
v -0.691335 3.764821 -0.551368
v -0.691335 2.193565 0.567403
v -0.691335 3.764821 0.567403
v -0.013349 2.230234 -0.551368
v -0.277194 2.162877 0.567403
v -0.686681 3.685306 0.567403
v -0.277194 2.162877 -0.551368
v -0.686681 3.685306 -0.551368
v -0.402007 3.752662 -0.551368
v -0.013349 2.230234 0.567403
v -0.402007 3.752662 0.567403
v 0.474441 2.267067 -0.551368
v 0.221857 2.165318 0.567403
v -0.365251 3.622764 0.567403
v 0.221857 2.165318 -0.551368
v -0.365251 3.622764 -0.551368
v -0.112667 3.724513 -0.551368
v 0.474441 2.267067 0.567403
v -0.112667 3.724513 0.567403
v 0.832529 2.282453 -0.551368
v 0.583730 2.171770 0.567403
v -0.054920 3.607378 0.567403
v 0.583730 2.171770 -0.551368
v -0.054920 3.607379 -0.551368
v 0.193880 3.718060 -0.551368
v 0.832529 2.282452 0.567403
v 0.193880 3.718060 0.567403
v 1.564192 2.354087 -0.551368
v 1.355766 2.178843 0.567403
v 0.344589 3.381494 0.567403
v 1.355766 2.178843 -0.551368
v 0.344589 3.381494 -0.551368
v 0.553016 3.556736 -0.551368
v 1.564192 2.354087 0.567403
v 0.553015 3.556736 0.567403
v 2.279853 2.178401 -0.503695
v 2.284982 2.273217 0.643817
v 2.817832 3.746146 0.519730
v 2.031239 2.273217 -0.445799
v 2.564087 3.746146 -0.569886
v 2.812702 3.651330 -0.627782
v 2.533598 2.178401 0.585921
v 3.066447 3.651329 0.461834
v -2.664480 0.000000 0.784390
v -2.664480 2.000000 0.784390
v -2.664480 0.000000 -0.817205
v -2.664480 2.000000 -0.817205
v 2.664480 0.000000 0.784390
v 2.664480 2.000000 0.784390
v 2.664480 0.000000 -0.817205
v 2.664480 2.000000 -0.817205
vn -0.0000 -0.0000 -1.0000
vn 1.0000 -0.0000 -0.0000
vn -0.0000 -1.0000 -0.0000
vn -0.0000 1.0000 -0.0021
vn -0.0000 1.0000 -0.0010
vn -0.0000 -0.0000 1.0000
vn -0.0000 0.8123 0.5832
vn -0.0000 0.9446 0.3282
vn -1.0000 -0.0000 -0.0000
vn -0.0000 -0.8002 -0.5998
vn -0.0000 -0.8010 -0.5987
vn -0.0000 1.0000 -0.0000
vn 0.2474 -0.9689 -0.0000
vn -0.2303 0.9731 -0.0000
vn -0.9657 -0.2597 -0.0000
vn 0.9689 0.2474 -0.0000
vn 0.3737 -0.9276 -0.0000
vn -0.3737 0.9276 -0.0000
vn -0.9276 -0.3737 -0.0000
vn 0.9276 0.3737 -0.0000
vn 0.4065 -0.9137 -0.0000
vn -0.4065 0.9137 -0.0000
vn -0.9137 -0.4065 -0.0000
vn 0.9137 0.4065 -0.0000
vn 0.6435 -0.7654 -0.0000
vn -0.6435 0.7654 -0.0000
vn -0.7654 -0.6435 -0.0000
vn 0.7654 0.6435 -0.0000
vn 0.2268 -0.0000 0.9739
vn -0.3391 -0.9374 0.0790
vn 0.3391 0.9374 -0.0790
vn -0.9130 0.3482 0.2126
vn 0.9130 -0.3482 -0.2126
vn -0.2268 -0.0000 -0.9739
vt 0.046204 0.496608
vt 0.044677 0.471875
vt 0.048063 0.760793
vt 0.048900 0.184137
vt 0.049241 0.287188
vt 0.662097 0.645898
vt 0.679032 0.163709
vt 0.044388 0.471875
vt 0.046204 0.347340
vt 0.692118 0.390153
vt 0.046236 0.347340
vt 0.666106 0.519215
vt 0.046204 0.351115
vt 0.044388 0.475650
vt 0.046173 0.351115
vt 0.666106 0.522990
vt 0.667622 0.672829
vt 0.045109 0.858661
vt 0.048063 0.757018
vt 0.044677 0.475650
vt 0.048841 0.184137
vt 0.049241 0.412364
vt 0.669576 0.452156
vt 0.679091 0.163709
vt 0.044401 0.471875
vt 0.046204 0.354287
vt 0.048900 0.200486
vt 0.049241 0.421011
vt 0.695071 0.315212
vt 0.687695 0.192465
vt 0.048841 0.200486
vt 0.049241 0.278541
vt 0.667622 0.664103
vt 0.687636 0.192465
vt 0.044401 0.475650
vt 0.686751 0.227879
vt 0.665943 0.522990
vt 0.667785 0.672829
vt 0.692281 0.390153
vt 0.686810 0.227879
vt 0.665943 0.519215
vt 0.695224 0.315212
vt 0.662249 0.512075
vt 0.679032 0.181550
vt 0.687695 0.202207
vt 0.667775 0.664103
vt 0.669728 0.585978
vt 0.679091 0.181550
vt 0.687636 0.202207
vt 0.047056 0.372072
vt 0.044677 0.871875
vt 0.048063 0.360793
vt 0.659060 0.187839
vt 0.048694 0.184137
vt 0.049240 0.412364
vt 0.658363 0.423946
vt 0.046204 0.747340
vt 0.044388 0.871875
vt 0.047056 0.222804
vt 0.046173 0.747340
vt 0.658363 0.281398
vt 0.047024 0.222804
vt 0.657512 0.805933
vt 0.046204 0.743565
vt 0.044388 0.868100
vt 0.046173 0.743565
vt 0.657512 0.802158
vt 0.691603 0.704101
vt 0.045109 0.466212
vt 0.044677 0.868100
vt 0.048063 0.364568
vt 0.659001 0.187839
vt 0.048753 0.184137
vt 0.049241 0.287188
vt 0.691206 0.413116
vt 0.044401 0.871875
vt 0.047056 0.229752
vt 0.689234 0.214358
vt 0.048694 0.200486
vt 0.049240 0.278541
vt 0.658363 0.290124
vt 0.689293 0.214358
vt 0.048753 0.200486
vt 0.049241 0.421011
vt 0.691603 0.695375
vt 0.044401 0.868100
vt 0.659461 0.439812
vt 0.657349 0.802158
vt 0.691440 0.704134
vt 0.658200 0.281398
vt 0.659402 0.439812
vt 0.657349 0.805933
vt 0.659060 0.205684
vt 0.689234 0.224127
vt 0.658211 0.290124
vt 0.659001 0.205684
vt 0.689293 0.224127
vt 0.691451 0.695406
vt 0.691060 0.546969
vt 0.692118 0.397101
vt 0.046236 0.354287
vt 0.049241 0.422790
vt 0.695071 0.313434
vt 0.046237 0.496608
vt 0.048030 0.760793
vt 0.686810 0.207454
vt 0.049241 0.280469
vt 0.662097 0.652618
vt 0.049241 0.276763
vt 0.667622 0.665882
vt 0.045122 0.858661
vt 0.045394 0.858661
vt 0.048030 0.757018
vt 0.686751 0.207454
vt 0.049241 0.419084
vt 0.669576 0.445436
vt 0.692277 0.397101
vt 0.686810 0.226966
vt 0.695230 0.313434
vt 0.662255 0.510297
vt 0.686751 0.226966
vt 0.667780 0.665882
vt 0.669734 0.587757
vt 0.047024 0.229752
vt 0.049240 0.276763
vt 0.658363 0.288345
vt 0.047023 0.372072
vt 0.048030 0.360793
vt 0.659402 0.419386
vt 0.049240 0.419084
vt 0.658363 0.430666
vt 0.049241 0.422790
vt 0.691603 0.697154
vt 0.045122 0.466212
vt 0.045394 0.466212
vt 0.048030 0.364568
vt 0.659461 0.419386
vt 0.049241 0.280469
vt 0.691205 0.406396
vt 0.659402 0.438899
vt 0.658205 0.288345
vt 0.659461 0.438899
vt 0.691445 0.697186
vt 0.691054 0.548749
vt 0.547624 0.634876
vt 0.587053 0.552436
vt 0.773629 0.368718
vt 0.546474 0.634876
vt 0.588236 0.552436
vt 0.740325 0.443128
vt 0.547624 0.241901
vt 0.720617 0.387890
vt 0.773629 0.761693
vt 0.546474 0.241901
vt 0.719434 0.387890
vt 0.740325 0.836103
vt 0.556700 0.403122
vt 0.587053 0.440425
vt 0.773415 0.368718
vt 0.555550 0.403122
vt 0.588236 0.440425
vt 0.740539 0.443128
vt 0.556700 0.796097
vt 0.720617 0.275879
vt 0.773415 0.761693
vt 0.555550 0.796097
vt 0.719434 0.275879
vt 0.740539 0.836103
vt 0.233467 0.189015
vt 0.740539 0.443128
vt 0.246108 0.417068
vt 0.234617 0.189015
vt 0.773415 0.368718
vt 0.244925 0.417068
vt 0.344832 0.511857
vt 0.773415 0.368718
vt 0.337422 0.195519
vt 0.346015 0.511857
vt 0.740539 0.443128
vt 0.336272 0.195519
vt 0.773415 0.761693
vt 0.337422 0.588493
vt 0.720617 0.275879
vt 0.344832 0.623868
vt 0.773629 0.368718
vt 0.351909 0.762115
vt 0.346015 0.623868
vt 0.740325 0.443128
vt 0.350759 0.762115
vt 0.773629 0.761693
vt 0.351909 0.369141
vt 0.720617 0.387890
vt 0.740325 0.836103
vt 0.350759 0.369141
vt 0.719434 0.387890
vt 0.740539 0.836103
vt 0.336272 0.588493
vt 0.719434 0.275879
vt 0.740539 0.836103
vt 0.719434 0.275879
vt 0.440445 0.700108
vt 0.773415 0.761693
vt 0.551659 0.749714
vt 0.720617 0.275879
vt 0.464443 0.811486
vt 0.773629 0.368718
vt 0.544134 0.724911
vt 0.465626 0.811486
vt 0.740325 0.443128
vt 0.542984 0.724911
vt 0.773629 0.761693
vt 0.544134 0.331936
vt 0.720617 0.387890
vt 0.740325 0.836103
vt 0.542984 0.331936
vt 0.719434 0.387890
vt 0.740539 0.836103
vt 0.550509 0.749714
vt 0.719434 0.275879
vt 0.464443 0.699475
vt 0.773415 0.368718
vt 0.551659 0.356739
vt 0.465626 0.699475
vt 0.740539 0.443128
vt 0.550509 0.356739
vt 0.719434 0.275879
vt 0.233467 0.581990
vt 0.740539 0.836103
vt 0.719434 0.387890
vt 0.236594 0.278122
vt 0.740325 0.836103
vt 0.720617 0.387890
vt 0.237744 0.278122
vt 0.773629 0.761693
vt 0.236594 0.671097
vt 0.740325 0.443128
vt 0.246108 0.529079
vt 0.237744 0.671097
vt 0.773629 0.368718
vt 0.244925 0.529079
vt 0.542984 0.331936
vt 0.740325 0.836103
vt 0.719434 0.387890
vt 0.544134 0.331936
vt 0.773629 0.761693
vt 0.720617 0.387890
vt 0.542984 0.724911
vt 0.740325 0.443128
vt 0.418874 0.506053
vt 0.544134 0.724911
vt 0.773629 0.368718
vt 0.417691 0.506053
vt 0.720617 0.275879
vt 0.234617 0.581990
vt 0.773415 0.761693
vt 0.773415 0.761693
vt 0.720617 0.275879
vt 0.441595 0.700108
vt 0.740539 0.443128
vt 0.418874 0.394042
vt 0.440445 0.307133
vt 0.773415 0.368718
vt 0.417691 0.394042
vt 0.441595 0.307133
vt 0.773415 0.761693
vt 0.684502 0.718464
vt 0.720617 0.275879
vt 0.611983 0.387500
vt 0.773629 0.368718
vt 0.678929 0.771786
vt 0.613166 0.387500
vt 0.740325 0.443128
vt 0.677780 0.771786
vt 0.773629 0.761693
vt 0.678929 0.378811
vt 0.720617 0.387890
vt 0.740325 0.836103
vt 0.677780 0.378811
vt 0.719434 0.387890
vt 0.740539 0.836103
vt 0.683352 0.718464
vt 0.719434 0.275879
vt 0.611983 0.275489
vt 0.773415 0.368718
vt 0.684502 0.325489
vt 0.613166 0.275489
vt 0.740539 0.443128
vt 0.683352 0.325489
vt 0.773415 0.761693
vt 0.551659 0.749714
vt 0.720617 0.275879
vt 0.559534 0.530856
vt 0.773629 0.368718
vt 0.544134 0.724911
vt 0.560717 0.530856
vt 0.740325 0.443128
vt 0.542984 0.724911
vt 0.773629 0.761693
vt 0.544134 0.331936
vt 0.720617 0.387890
vt 0.740325 0.836103
vt 0.542984 0.331936
vt 0.719434 0.387890
vt 0.740539 0.836103
vt 0.550509 0.749714
vt 0.719434 0.275879
vt 0.559534 0.418845
vt 0.773415 0.368718
vt 0.551659 0.356739
vt 0.560717 0.418845
vt 0.740539 0.443128
vt 0.550509 0.356739
vt 0.773415 0.761693
vt 0.469628 0.640339
vt 0.720617 0.275879
vt 0.457972 0.577731
vt 0.773629 0.368718
vt 0.462102 0.615536
vt 0.459155 0.577731
vt 0.740325 0.443128
vt 0.460953 0.615536
vt 0.773629 0.761693
vt 0.462102 0.222561
vt 0.720617 0.387890
vt 0.740325 0.836103
vt 0.460953 0.222561
vt 0.719434 0.387890
vt 0.740539 0.836103
vt 0.468478 0.640339
vt 0.719434 0.275879
vt 0.457972 0.465720
vt 0.773415 0.368718
vt 0.469628 0.247364
vt 0.459155 0.465720
vt 0.740539 0.443128
vt 0.468478 0.247364
vt 0.773415 0.761693
vt 0.649345 0.609089
vt 0.720617 0.275879
vt 0.670893 0.390231
vt 0.773629 0.368718
vt 0.641820 0.584286
vt 0.672076 0.390231
vt 0.740325 0.443128
vt 0.640670 0.584286
vt 0.773629 0.761693
vt 0.641820 0.191311
vt 0.720617 0.387890
vt 0.740325 0.836103
vt 0.640670 0.191311
vt 0.719434 0.387890
vt 0.740539 0.836103
vt 0.648195 0.609089
vt 0.719434 0.275879
vt 0.670893 0.278220
vt 0.773415 0.368718
vt 0.649345 0.216114
vt 0.672076 0.278220
vt 0.740539 0.443128
vt 0.648195 0.216114
vt 0.773415 0.761693
vt 0.322839 0.619251
vt 0.720617 0.275879
vt 0.311799 0.350295
vt 0.773629 0.368718
vt 0.315314 0.594448
vt 0.312982 0.350295
vt 0.740325 0.443128
vt 0.314164 0.594448
vt 0.773629 0.761693
vt 0.315314 0.201473
vt 0.720617 0.387890
vt 0.740325 0.836103
vt 0.314164 0.201473
vt 0.719434 0.387890
vt 0.740539 0.836103
vt 0.321690 0.619251
vt 0.719434 0.275879
vt 0.311799 0.238284
vt 0.773415 0.368718
vt 0.322839 0.226276
vt 0.312982 0.238284
vt 0.740539 0.443128
vt 0.321690 0.226276
vt 0.773415 0.761693
vt 0.152569 0.717972
vt 0.720617 0.275879
vt 0.172163 0.795989
vt 0.773629 0.368718
vt 0.145044 0.693169
vt 0.173346 0.795989
vt 0.740325 0.443128
vt 0.143894 0.693169
vt 0.773629 0.761693
vt 0.145044 0.300194
vt 0.720617 0.387890
vt 0.740325 0.836103
vt 0.143894 0.300194
vt 0.719434 0.387890
vt 0.740539 0.836103
vt 0.151419 0.717972
vt 0.719434 0.275879
vt 0.172163 0.683978
vt 0.773415 0.368718
vt 0.152569 0.324997
vt 0.173346 0.683978
vt 0.740539 0.443128
vt 0.151419 0.324997
vt 0.773415 0.761693
vt 0.932909 0.640339
vt 0.720617 0.275879
vt 0.940784 0.421481
vt 0.773629 0.368718
vt 0.925384 0.615536
vt 0.941967 0.421481
vt 0.740325 0.443128
vt 0.924234 0.615536
vt 0.773629 0.761693
vt 0.925384 0.222561
vt 0.720617 0.387890
vt 0.740325 0.836103
vt 0.924234 0.222561
vt 0.719434 0.387890
vt 0.740539 0.836103
vt 0.931759 0.640339
vt 0.719434 0.275879
vt 0.940784 0.309470
vt 0.773415 0.368718
vt 0.932909 0.247364
vt 0.941967 0.309470
vt 0.740539 0.443128
vt 0.931759 0.247364
vt 0.375000 0.000000
vt 0.375000 1.000000
vt 0.125000 0.750000
vt 0.625000 0.000000
vt 0.625000 1.000000
vt 0.875000 0.750000
vt 0.375000 0.250000
vt 0.125000 0.500000
vt 0.625000 0.250000
vt 0.875000 0.500000
vt 0.375000 0.750000
vt 0.625000 0.750000
vt 0.375000 0.500000
vt 0.625000 0.500000
s 1
usemtl BookshelfMat.005
f 5/13/1 6/15/1 4/11/1 3/9/1
f 9/26/2 33/101/2 34/104/2 1/1/2
f 12/35/3 9/25/3 1/2/3 7/20/3
f 2/4/4 10/27/4 11/31/4 8/21/4
f 41/134/5 42/135/4 36/112/4 35/111/5
f 1/3/6 34/105/6 36/113/6 7/19/6
f 23/71/6 7/19/6 36/113/6 42/136/6
f 5/13/1 21/64/1 22/66/1 6/15/1
f 33/100/2 4/10/2 14/39/2 37/117/2
f 5/14/3 3/8/3 9/25/3 12/35/3
f 3/9/2 4/11/2 33/101/2 9/26/2
f 37/118/7 38/121/7 36/114/7 34/106/7
f 14/40/8 13/36/8 38/121/8 37/118/8
f 4/12/1 6/16/1 13/37/1 14/41/1
f 6/17/9 35/110/9 38/122/9 13/38/9
f 24/72/10 18/53/10 31/93/10 32/96/10
f 12/35/3 28/86/3 21/65/3 5/14/3
f 7/20/3 23/70/3 28/86/3 12/35/3
f 21/64/1 19/57/1 20/60/1 22/66/1
f 25/77/9 17/50/9 40/127/9 39/124/9
f 28/86/3 23/70/3 17/51/3 25/76/3
f 26/78/6 27/82/6 32/97/6 31/94/6
f 17/52/6 23/71/6 42/136/6 40/128/6
f 39/126/9 43/141/9 30/90/9 20/61/9
f 21/65/3 28/86/3 25/76/3 19/58/3
f 19/59/9 25/77/9 39/124/9 20/62/9
f 43/140/7 40/129/7 42/137/7 44/142/7
f 30/91/8 43/140/8 44/142/8 29/87/8
f 20/63/1 30/92/1 29/88/1 22/67/1
f 22/68/2 29/89/2 44/143/2 41/133/2
f 18/54/4 24/73/4 27/83/4 26/79/4
f 10/28/9 2/5/9 34/107/9 33/102/9
f 8/22/2 11/32/2 35/109/2 36/115/2
f 15/42/2 10/29/2 33/103/2 37/119/2
f 11/33/9 16/46/9 38/122/9 35/110/9
f 16/47/9 8/23/9 36/116/9 38/123/9
f 18/55/2 26/80/2 39/125/2 40/130/2
f 27/84/9 24/74/9 42/138/9 41/132/9
f 26/81/9 31/95/9 43/141/9 39/126/9
f 32/98/2 27/85/2 41/133/2 44/143/2
f 24/75/2 32/99/2 44/144/2 42/139/2
f 31/95/9 18/56/9 40/131/9 43/141/9
f 2/6/2 15/43/2 37/120/2 34/108/2
f 8/24/11 16/48/11 15/44/11 2/7/11
f 10/30/6 15/45/6 16/49/6 11/34/6
f 22/69/12 41/134/5 35/111/5 6/18/12
f 45/145/9 46/148/9 48/154/9 47/151/9
f 80/250/9 79/247/9 77/241/9 78/244/9
f 51/163/2 52/166/2 50/160/2 49/157/2
f 47/152/1 48/155/1 52/167/1 51/164/1
f 49/158/6 50/161/6 46/149/6 45/146/6
f 47/153/3 51/165/3 49/159/3 45/147/3
f 55/175/6 56/178/6 59/187/6 58/184/6
f 60/190/3 57/181/3 55/176/3 58/185/3
f 62/196/12 61/193/12 59/188/12 56/179/12
f 58/186/9 59/189/9 61/194/9 60/191/9
f 63/199/12 77/242/12 79/248/12 83/259/12
f 52/168/12 48/156/12 46/150/12 50/162/12
f 70/220/6 71/223/6 66/208/6 65/205/6
f 67/211/3 64/202/3 70/221/3 65/206/3
f 69/217/12 68/214/12 66/209/12 71/224/12
f 65/207/9 66/210/9 68/215/9 67/212/9
f 64/203/2 69/218/2 71/225/2 70/222/2
f 67/213/1 68/216/1 69/219/1 64/204/1
f 74/232/1 73/229/1 72/226/1 81/253/1
f 81/254/2 72/227/2 53/169/2 54/172/2
f 76/238/9 75/235/9 73/230/9 74/233/9
f 72/228/12 73/231/12 75/236/12 53/170/12
f 78/245/3 82/256/3 84/262/3 80/251/3
f 84/263/6 83/260/6 79/249/6 80/252/6
f 78/246/1 77/243/1 63/200/1 82/257/1
f 82/258/2 63/201/2 83/261/2 84/264/2
f 74/234/3 81/255/3 54/173/3 76/239/3
f 54/174/6 53/171/6 75/237/6 76/240/6
f 57/182/2 62/197/2 56/180/2 55/177/2
f 60/192/1 61/195/1 62/198/1 57/183/1
f 91/283/6 92/286/6 87/271/6 86/268/6
f 88/274/3 85/265/3 91/284/3 86/269/3
f 90/280/12 89/277/12 87/272/12 92/287/12
f 86/270/9 87/273/9 89/278/9 88/275/9
f 85/266/2 90/281/2 92/288/2 91/285/2
f 88/276/1 89/279/1 90/282/1 85/267/1
f 99/307/6 100/310/6 95/295/6 94/292/6
f 96/298/3 93/289/3 99/308/3 94/293/3
f 98/304/12 97/301/12 95/296/12 100/311/12
f 94/294/9 95/297/9 97/302/9 96/299/9
f 93/290/2 98/305/2 100/312/2 99/309/2
f 96/300/1 97/303/1 98/306/1 93/291/1
f 107/331/6 108/334/6 103/319/6 102/316/6
f 104/322/13 101/313/13 107/332/13 102/317/13
f 106/328/14 105/325/14 103/320/14 108/335/14
f 102/318/15 103/321/15 105/326/15 104/323/15
f 101/314/16 106/329/16 108/336/16 107/333/16
f 104/324/1 105/327/1 106/330/1 101/315/1
f 115/355/6 116/358/6 111/343/6 110/340/6
f 112/346/17 109/337/17 115/356/17 110/341/17
f 114/352/18 113/349/18 111/344/18 116/359/18
f 110/342/19 111/345/19 113/350/19 112/347/19
f 109/338/20 114/353/20 116/360/20 115/357/20
f 112/348/1 113/351/1 114/354/1 109/339/1
f 123/379/6 124/382/6 119/367/6 118/364/6
f 120/370/21 117/361/21 123/380/21 118/365/21
f 122/376/22 121/373/22 119/368/22 124/383/22
f 118/366/23 119/369/23 121/374/23 120/371/23
f 117/362/24 122/377/24 124/384/24 123/381/24
f 120/372/1 121/375/1 122/378/1 117/363/1
f 131/403/6 132/406/6 127/391/6 126/388/6
f 128/394/25 125/385/25 131/404/25 126/389/25
f 130/400/26 129/397/26 127/392/26 132/407/26
f 126/390/27 127/393/27 129/398/27 128/395/27
f 125/386/28 130/401/28 132/408/28 131/405/28
f 128/396/1 129/399/1 130/402/1 125/387/1
f 139/427/29 140/430/29 135/415/29 134/412/29
f 136/418/30 133/409/30 139/428/30 134/413/30
f 138/424/31 137/421/31 135/416/31 140/431/31
f 134/414/32 135/417/32 137/422/32 136/419/32
f 133/410/33 138/425/33 140/432/33 139/429/33
f 136/420/34 137/423/34 138/426/34 133/411/34
s 0
usemtl Material
f 141/433/9 142/436/9 144/441/9 143/439/9
f 143/439/1 144/441/1 148/446/1 147/445/1
f 147/445/2 148/446/2 146/444/2 145/443/2
f 145/443/6 146/444/6 142/437/6 141/434/6
f 143/440/3 147/445/3 145/443/3 141/435/3
f 148/446/12 144/442/12 142/438/12 146/444/12
