# Blender 3.3.0
# www.blender.org
mtllib ReceptionDesk_02.mtl
o WallBookshelf02
v 2.685263 2.000534 0.778845
v 2.685263 2.000534 -0.821155
v 2.685263 2.218573 -0.821155
v -2.674216 2.000534 0.778845
v -2.674216 2.000534 -0.821155
v -2.674216 2.218573 -0.821155
v 2.685263 2.221725 0.778845
v -2.674216 2.221725 0.778845
v -2.629998 2.000534 -0.821155
v 2.641046 2.000534 -0.821155
v 2.641045 2.000534 0.778845
v -2.629999 2.000534 0.778845
v -2.629998 2.221725 0.778845
v 2.641046 2.221725 0.778845
v 2.641045 2.218573 -0.821155
v -2.629999 2.218573 -0.821155
v 2.685263 2.888846 -0.821912
v 2.685263 2.891998 0.778088
v -2.674216 2.891998 0.778088
v -2.674216 2.888846 -0.821912
v 2.641046 2.891998 0.778088
v -2.629999 2.888846 -0.821912
v -2.629998 2.891998 0.778088
v 2.641045 2.888846 -0.821912
v 2.350085 2.216467 0.565139
v 2.350085 3.940675 0.565139
v 2.350085 2.216467 -0.553632
v 2.350085 3.940676 -0.553632
v 2.632980 2.216467 0.565139
v 2.632980 3.940675 0.565139
v 2.632980 2.216467 -0.553632
v 2.632980 3.940676 -0.553632
v 2.056461 2.216467 0.565139
v 2.056461 3.816418 0.565139
v 2.056461 2.216467 -0.553632
v 2.056461 3.816418 -0.553632
v 2.339356 2.216467 0.565139
v 2.339356 3.816418 0.565139
v 2.339356 2.216467 -0.553632
v 2.339356 3.816418 -0.553632
v 1.834703 2.216467 0.565139
v 1.834703 3.730723 0.565139
v 1.834703 2.216467 -0.553632
v 1.834703 3.730723 -0.553632
v 2.043373 2.216467 0.565139
v 2.043373 3.730723 0.565139
v 2.043373 2.216467 -0.553632
v 2.043373 3.730723 -0.553632
v 1.611897 2.216467 0.565139
v 1.611897 3.802631 0.565139
v 1.611897 2.216467 -0.553632
v 1.611897 3.802632 -0.553632
v 1.820566 2.216467 0.565139
v 1.820566 3.802631 0.565139
v 1.820566 2.216467 -0.553632
v 1.820566 3.802632 -0.553632
v 1.323765 2.216467 0.565139
v 1.323765 3.802631 0.565139
v 1.323765 2.216467 -0.553632
v 1.323765 3.802632 -0.553632
v 1.591922 2.216467 0.565139
v 1.591922 3.802631 0.565139
v 1.591922 2.216467 -0.553632
v 1.591922 3.802632 -0.553632
v 1.035736 2.216467 0.565139
v 1.035736 3.909750 0.565139
v 1.035736 2.216467 -0.553632
v 1.035736 3.909750 -0.553632
v 1.303893 2.216467 0.565139
v 1.303893 3.909750 0.565139
v 1.303893 2.216467 -0.553632
v 1.303893 3.909750 -0.553632
v -1.162778 2.492774 0.565139
v 0.530506 2.492774 0.565139
v -1.162778 2.492775 -0.553632
v 0.530506 2.492775 -0.553632
v -1.162778 2.224617 0.565139
v 0.530506 2.224617 0.565139
v -1.162778 2.224618 -0.553632
v 0.530506 2.224618 -0.553632
v -0.204461 2.649776 0.565139
v 0.830472 3.989971 0.565139
v -0.204461 2.649776 -0.553632
v 0.830472 3.989972 -0.553632
v 0.007779 2.485879 0.565139
v 1.042712 3.826074 0.565139
v 0.007779 2.485879 -0.553632
v 1.042712 3.826074 -0.553632
v -2.519924 2.226684 0.565139
v -2.748488 3.904470 0.565139
v -2.519924 2.226684 -0.553632
v -2.748488 3.904470 -0.553632
v -2.254220 2.262880 0.565139
v -2.482785 3.940667 0.565139
v -2.254220 2.262880 -0.553632
v -2.482785 3.940667 -0.553632
v -1.965757 2.228203 0.565139
v -2.454569 3.849397 0.565139
v -1.965757 2.228203 -0.553632
v -2.454569 3.849397 -0.553632
v -1.709016 2.305613 0.565139
v -2.197828 3.926808 0.565139
v -1.709016 2.305614 -0.553632
v -2.197828 3.926808 -0.553632
v -2.664479 0.000000 0.778797
v -2.664479 2.000000 0.778797
v -2.664479 0.000000 -0.822797
v -2.664479 2.000000 -0.822797
v 2.664480 0.000000 0.778797
v 2.664480 2.000000 0.778797
v 2.664480 0.000000 -0.822797
v 2.664480 2.000000 -0.822797
vn -1.0000 -0.0000 -0.0000
vn 1.0000 -0.0000 -0.0000
vn -0.0000 -1.0000 -0.0000
vn -0.0000 -0.0000 -1.0000
vn -0.0000 -0.0006 -1.0000
vn -0.0000 -0.0004 -1.0000
vn -0.0000 -0.0000 1.0000
vn -0.0000 0.0006 1.0000
vn -0.0000 0.0004 1.0000
vn -0.0000 -0.0011 -1.0000
vn -0.0000 1.0000 -0.0020
vn -0.0000 0.0011 1.0000
vn -0.0000 1.0000 -0.0000
vn -0.7915 0.6112 -0.0000
vn 0.7915 -0.6112 -0.0000
vn -0.6112 -0.7915 -0.0000
vn 0.6112 0.7915 -0.0000
vn -0.9908 -0.1350 -0.0000
vn 0.9908 0.1350 -0.0000
vn 0.1350 -0.9908 -0.0000
vn -0.1350 0.9908 -0.0000
vn -0.9574 -0.2887 -0.0000
vn 0.9574 0.2887 -0.0000
vn 0.2887 -0.9574 -0.0000
vn -0.2887 0.9574 -0.0000
vt 0.859747 0.447002
vt 0.858220 0.422269
vt 0.861606 0.711186
vt 0.857931 0.422269
vt 0.859747 0.297733
vt 0.859779 0.297733
vt 0.860599 0.322466
vt 0.861606 0.311186
vt 0.858220 0.822269
vt 0.860599 0.173198
vt 0.859747 0.697733
vt 0.857931 0.822269
vt 0.860567 0.173198
vt 0.859716 0.697733
vt 0.861573 0.711186
vt 0.859780 0.447002
vt 0.860566 0.322466
vt 0.861573 0.311186
vt 0.859747 0.564400
vt 0.857931 0.688935
vt 0.859747 0.431067
vt 0.857931 0.555602
vt 0.861606 0.577853
vt 0.858220 0.555602
vt 0.861606 0.444520
vt 0.858220 0.688935
vt 0.862783 0.323273
vt 0.861573 0.444520
vt 0.861573 0.577853
vt 0.862784 0.277067
vt 0.859716 0.431067
vt 0.860042 0.256222
vt 0.859716 0.564400
vt 0.860304 0.214710
vt 0.859779 0.297733
vt 0.862784 0.230862
vt 0.861573 0.711186
vt 0.859780 0.447002
vt 0.860566 0.322466
vt 0.862783 0.369478
vt 0.861573 0.311186
vt 0.859716 0.697733
vt 0.860567 0.173198
vt 0.861573 0.577853
vt 0.862784 0.277067
vt 0.859716 0.564400
vt 0.860304 0.214710
vt 0.862783 0.323273
vt 0.861573 0.444520
vt 0.859716 0.431067
vt 0.860042 0.256222
vt 0.939381 0.477386
vt 0.978809 0.394946
vt 0.773629 0.368718
vt 0.938231 0.477386
vt 0.979993 0.394946
vt 0.740325 0.443128
vt 0.939381 0.084411
vt 0.720617 0.387890
vt 0.773629 0.761693
vt 0.938231 0.084411
vt 0.719434 0.387890
vt 0.740325 0.836103
vt 0.948456 0.245632
vt 0.978809 0.282935
vt 0.773415 0.368718
vt 0.947306 0.245632
vt 0.979993 0.282935
vt 0.740539 0.443128
vt 0.948456 0.638607
vt 0.720617 0.275879
vt 0.773415 0.761693
vt 0.947306 0.638607
vt 0.719434 0.275879
vt 0.740539 0.836103
vt 0.547624 0.634876
vt 0.587053 0.552436
vt 0.773629 0.368718
vt 0.546474 0.634876
vt 0.588236 0.552436
vt 0.740325 0.443128
vt 0.547624 0.241901
vt 0.720617 0.387890
vt 0.773629 0.761693
vt 0.546474 0.241901
vt 0.719434 0.387890
vt 0.740325 0.836103
vt 0.556700 0.403122
vt 0.587053 0.440425
vt 0.773415 0.368718
vt 0.555550 0.403122
vt 0.588236 0.440425
vt 0.740539 0.443128
vt 0.556700 0.796097
vt 0.720617 0.275879
vt 0.773415 0.761693
vt 0.555550 0.796097
vt 0.719434 0.275879
vt 0.740539 0.836103
vt 0.344856 0.575817
vt 0.384284 0.493377
vt 0.773629 0.368718
vt 0.343706 0.575817
vt 0.385467 0.493377
vt 0.740325 0.443128
vt 0.344856 0.182843
vt 0.720617 0.387890
vt 0.773629 0.761693
vt 0.343706 0.182843
vt 0.719434 0.387890
vt 0.740325 0.836103
vt 0.353931 0.344063
vt 0.384284 0.381366
vt 0.773415 0.368718
vt 0.352781 0.344063
vt 0.385467 0.381366
vt 0.740539 0.443128
vt 0.353931 0.737038
vt 0.720617 0.275879
vt 0.773415 0.761693
vt 0.352781 0.737038
vt 0.719434 0.275879
vt 0.740539 0.836103
vt 0.429507 0.536445
vt 0.468935 0.454004
vt 0.773629 0.368718
vt 0.428356 0.536445
vt 0.470118 0.454004
vt 0.740325 0.443128
vt 0.429507 0.143470
vt 0.720617 0.387890
vt 0.773629 0.761693
vt 0.428356 0.143470
vt 0.719434 0.387890
vt 0.740325 0.836103
vt 0.438582 0.304691
vt 0.468935 0.341994
vt 0.773415 0.368718
vt 0.437432 0.304691
vt 0.470118 0.341994
vt 0.740539 0.443128
vt 0.438582 0.697665
vt 0.720617 0.275879
vt 0.773415 0.761693
vt 0.437432 0.697665
vt 0.719434 0.275879
vt 0.740539 0.836103
vt 0.146024 0.595504
vt 0.185453 0.513063
vt 0.773629 0.368718
vt 0.144874 0.595504
vt 0.186636 0.513063
vt 0.740325 0.443128
vt 0.146024 0.202529
vt 0.720617 0.387890
vt 0.773629 0.761693
vt 0.144874 0.202529
vt 0.719434 0.387890
vt 0.740325 0.836103
vt 0.155100 0.363749
vt 0.185453 0.401052
vt 0.773415 0.368718
vt 0.153950 0.363749
vt 0.186636 0.401052
vt 0.740539 0.443128
vt 0.155100 0.756724
vt 0.720617 0.275879
vt 0.773415 0.761693
vt 0.153950 0.756724
vt 0.719434 0.275879
vt 0.740539 0.836103
vt 0.931506 0.733308
vt 0.970935 0.650867
vt 0.773629 0.368718
vt 0.930356 0.733308
vt 0.972118 0.650867
vt 0.740325 0.443128
vt 0.931506 0.340333
vt 0.720617 0.387890
vt 0.773629 0.761693
vt 0.930356 0.340333
vt 0.719434 0.387890
vt 0.740325 0.836103
vt 0.940582 0.501553
vt 0.970935 0.538856
vt 0.773415 0.368718
vt 0.939432 0.501553
vt 0.972118 0.538856
vt 0.740539 0.443128
vt 0.940582 0.894528
vt 0.720617 0.275879
vt 0.773415 0.761693
vt 0.939432 0.894528
vt 0.719434 0.275879
vt 0.740539 0.836103
vt 0.639812 0.775501
vt 0.679240 0.693061
vt 0.773629 0.368718
vt 0.638662 0.775501
vt 0.680423 0.693061
vt 0.740325 0.443128
vt 0.639812 0.382526
vt 0.720617 0.387890
vt 0.773629 0.761693
vt 0.638662 0.382526
vt 0.719434 0.387890
vt 0.740325 0.836103
vt 0.556700 0.403122
vt 0.679240 0.581050
vt 0.773415 0.368718
vt 0.555550 0.403122
vt 0.680423 0.581050
vt 0.740539 0.443128
vt 0.556700 0.796097
vt 0.720617 0.275879
vt 0.773415 0.761693
vt 0.555550 0.796097
vt 0.719434 0.275879
vt 0.740539 0.836103
vt 0.333562 0.603626
vt 0.372990 0.521186
vt 0.773629 0.368718
vt 0.332412 0.603626
vt 0.374173 0.521186
vt 0.740325 0.443128
vt 0.333562 0.210651
vt 0.720617 0.387890
vt 0.773629 0.761693
vt 0.332412 0.210651
vt 0.719434 0.387890
vt 0.740325 0.836103
vt 0.342637 0.371872
vt 0.372990 0.409175
vt 0.773415 0.368718
vt 0.341487 0.371872
vt 0.374173 0.409175
vt 0.740539 0.443128
vt 0.342637 0.764847
vt 0.720617 0.275879
vt 0.773415 0.761693
vt 0.341487 0.764847
vt 0.719434 0.275879
vt 0.740539 0.836103
vt 0.431999 0.634876
vt 0.471428 0.552436
vt 0.773629 0.368718
vt 0.430849 0.634876
vt 0.472611 0.552436
vt 0.740325 0.443128
vt 0.431999 0.241901
vt 0.720617 0.387890
vt 0.773629 0.761693
vt 0.430849 0.241901
vt 0.719434 0.387890
vt 0.740325 0.836103
vt 0.441075 0.403122
vt 0.471428 0.440425
vt 0.773415 0.368718
vt 0.439925 0.403122
vt 0.472611 0.440425
vt 0.740539 0.443128
vt 0.441075 0.796097
vt 0.720617 0.275879
vt 0.773415 0.761693
vt 0.439925 0.796097
vt 0.719434 0.275879
vt 0.740539 0.836103
vt 0.541542 0.670808
vt 0.580970 0.588367
vt 0.773629 0.368718
vt 0.540392 0.670808
vt 0.582153 0.588367
vt 0.740325 0.443128
vt 0.541542 0.277833
vt 0.720617 0.387890
vt 0.773629 0.761693
vt 0.540392 0.277833
vt 0.719434 0.387890
vt 0.740325 0.836103
vt 0.550617 0.439053
vt 0.580970 0.476356
vt 0.773415 0.368718
vt 0.549467 0.439053
vt 0.582153 0.476356
vt 0.740539 0.443128
vt 0.550617 0.832028
vt 0.720617 0.275879
vt 0.773415 0.761693
vt 0.549467 0.832028
vt 0.719434 0.275879
vt 0.740539 0.836103
vt 0.375000 0.000000
vt 0.375000 1.000000
vt 0.125000 0.750000
vt 0.625000 0.000000
vt 0.625000 1.000000
vt 0.875000 0.750000
vt 0.375000 0.250000
vt 0.125000 0.500000
vt 0.625000 0.250000
vt 0.875000 0.500000
vt 0.375000 0.750000
vt 0.625000 0.750000
vt 0.375000 0.500000
vt 0.625000 0.500000
s 1
usemtl BookshelfMat.006
f 6/13/1 8/17/1 19/39/1 20/43/1
f 2/5/2 3/6/2 7/16/2 1/1/2
f 10/22/3 2/4/3 1/2/3 11/24/3
f 5/10/1 4/7/1 8/17/1 6/13/1
f 9/19/4 5/11/4 6/14/5 16/33/6
f 11/23/7 1/3/7 7/15/8 14/29/9
f 4/8/7 12/25/7 13/28/9 8/18/8
f 12/25/7 11/23/7 14/29/9 13/28/9
f 2/5/4 10/21/4 15/31/6 3/6/5
f 10/21/4 9/19/4 16/33/6 15/31/6
f 5/12/3 9/20/3 12/26/3 4/9/3
f 9/20/3 10/22/3 11/24/3 12/26/3
f 16/33/6 6/14/5 20/42/10 22/46/10
f 14/30/11 15/32/11 16/34/11 13/27/11
f 23/48/11 22/47/11 20/43/11 19/40/11
f 18/36/11 17/35/11 24/51/11 21/45/11
f 3/6/5 15/31/6 24/50/10 17/35/10
f 13/27/2 16/34/2 22/47/2 23/48/2
f 8/18/8 13/28/9 23/49/12 19/41/12
f 14/29/9 7/15/8 18/37/12 21/44/12
f 7/16/2 3/6/2 17/35/2 18/38/2
f 15/32/1 14/30/1 21/45/1 24/51/1
f 25/52/1 26/55/1 28/61/1 27/58/1
f 31/70/2 32/73/2 30/67/2 29/64/2
f 27/59/4 28/62/4 32/74/4 31/71/4
f 29/65/7 30/68/7 26/56/7 25/53/7
f 27/60/3 31/72/3 29/66/3 25/54/3
f 32/75/13 28/63/13 26/57/13 30/69/13
f 33/76/1 34/79/1 36/85/1 35/82/1
f 39/94/2 40/97/2 38/91/2 37/88/2
f 35/83/4 36/86/4 40/98/4 39/95/4
f 37/89/7 38/92/7 34/80/7 33/77/7
f 35/84/3 39/96/3 37/90/3 33/78/3
f 40/99/13 36/87/13 34/81/13 38/93/13
f 41/100/1 42/103/1 44/109/1 43/106/1
f 47/118/2 48/121/2 46/115/2 45/112/2
f 43/107/4 44/110/4 48/122/4 47/119/4
f 45/113/7 46/116/7 42/104/7 41/101/7
f 43/108/3 47/120/3 45/114/3 41/102/3
f 48/123/13 44/111/13 42/105/13 46/117/13
f 49/124/1 50/127/1 52/133/1 51/130/1
f 55/142/2 56/145/2 54/139/2 53/136/2
f 51/131/4 52/134/4 56/146/4 55/143/4
f 53/137/7 54/140/7 50/128/7 49/125/7
f 51/132/3 55/144/3 53/138/3 49/126/3
f 56/147/13 52/135/13 50/129/13 54/141/13
f 57/148/1 58/151/1 60/157/1 59/154/1
f 63/166/2 64/169/2 62/163/2 61/160/2
f 59/155/4 60/158/4 64/170/4 63/167/4
f 61/161/7 62/164/7 58/152/7 57/149/7
f 59/156/3 63/168/3 61/162/3 57/150/3
f 64/171/13 60/159/13 58/153/13 62/165/13
f 65/172/1 66/175/1 68/181/1 67/178/1
f 71/190/2 72/193/2 70/187/2 69/184/2
f 67/179/4 68/182/4 72/194/4 71/191/4
f 69/185/7 70/188/7 66/176/7 65/173/7
f 67/180/3 71/192/3 69/186/3 65/174/3
f 72/195/13 68/183/13 66/177/13 70/189/13
f 73/196/13 74/199/13 76/205/13 75/202/13
f 79/214/3 80/217/3 78/211/3 77/208/3
f 75/203/4 76/206/4 80/218/4 79/215/4
f 77/209/7 78/212/7 74/200/7 73/197/7
f 75/204/1 79/216/1 77/210/1 73/198/1
f 80/219/2 76/207/2 74/201/2 78/213/2
f 81/220/14 82/223/14 84/229/14 83/226/14
f 87/238/15 88/241/15 86/235/15 85/232/15
f 83/227/4 84/230/4 88/242/4 87/239/4
f 85/233/7 86/236/7 82/224/7 81/221/7
f 83/228/16 87/240/16 85/234/16 81/222/16
f 88/243/17 84/231/17 82/225/17 86/237/17
f 89/244/18 90/247/18 92/253/18 91/250/18
f 95/262/19 96/265/19 94/259/19 93/256/19
f 91/251/4 92/254/4 96/266/4 95/263/4
f 93/257/7 94/260/7 90/248/7 89/245/7
f 91/252/20 95/264/20 93/258/20 89/246/20
f 96/267/21 92/255/21 90/249/21 94/261/21
f 97/268/22 98/271/22 100/277/22 99/274/22
f 103/286/23 104/289/23 102/283/23 101/280/23
f 99/275/4 100/278/4 104/290/4 103/287/4
f 101/281/7 102/284/7 98/272/7 97/269/7
f 99/276/24 103/288/24 101/282/24 97/270/24
f 104/291/25 100/279/25 98/273/25 102/285/25
s 0
usemtl Material.001
f 105/292/1 106/295/1 108/300/1 107/298/1
f 107/298/4 108/300/4 112/305/4 111/304/4
f 111/304/2 112/305/2 110/303/2 109/302/2
f 109/302/7 110/303/7 106/296/7 105/293/7
f 107/299/3 111/304/3 109/302/3 105/294/3
f 112/305/13 108/301/13 106/297/13 110/303/13
